# xmcd
#
# Track frame offsets: 
#        150
#        23257
#        79355
#        102467
#        135405
#        163142
#        183862
#        197597
#
# Disc length: 3021 seconds
#
# Revision: 0
# Processed by: cddbd v1.4PL0 Copyright (c) Steve Scherf et al.
# Submitted via: ExactAudioCopy v0.90a11
#
DISCID=5c0bcb08
DTITLE=Blues Traveler - Jones For The Blues (Unofficial Live Recording
DTITLE=)  CD2
DYEAR=1900
DGENRE=
TTITLE0=Brother John
TTITLE1=What's For Breakfast
TTITLE2=Mountain Cry
TTITLE3=Mullin' It Over
TTITLE4=Stand
TTITLE5=Run Around
TTITLE6=Crash Burn
TTITLE7=Rock Me Baby Face
EXTD=Recorded Live At the Jones Beach Amphitheater\nLong Island, NY 07
EXTD=/31/94\n\nTracks 4-8 Bonus tracks recorded live at The House Of B
EXTD=lues, New Orleans, LA 1994
EXTT0=
EXTT1=
EXTT2=
EXTT3=
EXTT4=
EXTT5=
EXTT6=
EXTT7=
PLAYORDER=
